<svg width="30" height="30" viewBox="0 0 30 30" fill="none" xmlns="http://www.w3.org/2000/svg">
<path d="M15 0C6.71596 0 0 6.71596 0 15C0 23.284 6.71596 30 15 30C23.284 30 30 23.284 30 15C30 6.71596 23.284 0 15 0ZM15.0121 5.76923C15.8971 5.76923 16.7308 6.54577 16.7308 7.48904C16.7308 8.49635 15.8971 9.23077 15.0121 9.23077C13.976 9.23077 13.2692 8.49635 13.2692 7.48904C13.2692 6.54577 13.976 5.76923 15.0121 5.76923ZM19.0385 23.6538H16.1538H13.8462H10.9615V21.9231L13.8462 21.3462V13.8462H11.5385V12.1154L16.1538 11.5385V21.3462L19.0385 21.9231V23.6538Z" fill="#FBFDFD"/>
</svg>
