<svg width="326" height="85" viewBox="0 0 326 85" fill="none" xmlns="http://www.w3.org/2000/svg">
<g filter="url(#filter0_i_35_2)">
<path d="M60 55C60 71.5685 46.5685 85 30 85C13.4315 85 0 71.5685 0 55C0 38.4315 13.4315 25 30 25C46.5685 25 60 38.4315 60 55Z" fill="#FBFDFD"/>
</g>
<g filter="url(#filter1_d_35_2)">
<path d="M27.92 68.68C27.6533 63.96 27.52 59.8533 27.52 56.36C27.52 52.84 27.6 49.1733 27.76 45.36L22.88 46.04L22 41.4C24.6133 40.9467 27.2 40.6133 29.76 40.4L37.24 40L38 44.44C36.5333 44.52 34.88 44.64 33.04 44.8C32.88 48.64 32.8 52.16 32.8 55.36C32.8 58.56 32.8533 63.1467 32.96 69.12L27.92 68.68Z" fill="url(#paint0_linear_35_2)"/>
</g>
<g filter="url(#filter2_i_35_2)">
<path d="M108 55C108 71.5685 94.5685 85 78 85C61.4315 85 48 71.5685 48 55C48 38.4315 61.4315 25 78 25C94.5685 25 108 38.4315 108 55Z" fill="#FBFDFD"/>
</g>
<g filter="url(#filter3_d_35_2)">
<path d="M80.76 40.48C80.52 44.6933 80.4 49.44 80.4 54.72C80.4 60 80.5733 64.8133 80.92 69.16L75.52 68.68C75.1733 63.24 75 58.3333 75 53.96C75 49.56 75.12 44.9067 75.36 40L80.76 40.48Z" fill="url(#paint1_linear_35_2)"/>
</g>
<g filter="url(#filter4_i_35_2)">
<path d="M156 55C156 71.5685 142.569 85 126 85C109.431 85 96 71.5685 96 55C96 38.4315 109.431 25 126 25C142.569 25 156 38.4315 156 55Z" fill="#FBFDFD"/>
</g>
<g filter="url(#filter5_d_35_2)">
<path d="M126.72 45.12C125.547 45.12 124.52 46.5733 123.64 49.48C122.76 52.36 122.32 54.92 122.32 57.16C122.32 61.8533 123.547 64.2 126 64.2C126.693 64.2 127.293 63.9067 127.8 63.32C128.333 62.7067 128.707 62.08 128.92 61.44C129.16 60.8 129.44 59.92 129.76 58.8L134.84 59.2C134.147 62.48 133.107 64.9867 131.72 66.72C130.36 68.4533 128.453 69.32 126 69.32C123.12 69.32 120.893 68.24 119.32 66.08C117.773 63.8933 117 61.12 117 57.76C117 53.84 117.773 50.0267 119.32 46.32C120.067 44.48 121.107 42.9733 122.44 41.8C123.8 40.6 125.347 40 127.08 40C129.213 40 130.76 40.7067 131.72 42.12C132.2 42.8133 132.587 43.52 132.88 44.24C133.2 44.96 133.427 45.88 133.56 47C133.8 48.7867 133.947 50.7067 134 52.76L128.84 52.28C128.84 48.84 128.52 46.68 127.88 45.8C127.587 45.3467 127.2 45.12 126.72 45.12Z" fill="url(#paint2_linear_35_2)"/>
</g>
<g filter="url(#filter6_i_35_2)">
<path d="M204 55C204 71.5685 190.569 85 174 85C157.431 85 144 71.5685 144 55C144 38.4315 157.431 25 174 25C190.569 25 204 38.4315 204 55Z" fill="#FBFDFD"/>
</g>
<g filter="url(#filter7_d_35_2)">
<path d="M171.92 68.68C171.653 63.96 171.52 59.8533 171.52 56.36C171.52 52.84 171.6 49.1733 171.76 45.36L166.88 46.04L166 41.4C168.613 40.9467 171.2 40.6133 173.76 40.4L181.24 40L182 44.44C180.533 44.52 178.88 44.64 177.04 44.8C176.88 48.64 176.8 52.16 176.8 55.36C176.8 58.56 176.853 63.1467 176.96 69.12L171.92 68.68Z" fill="url(#paint3_linear_35_2)"/>
</g>
<g filter="url(#filter8_i_35_2)">
<path d="M252 55C252 71.5685 238.569 85 222 85C205.431 85 192 71.5685 192 55C192 38.4315 205.431 25 222 25C238.569 25 252 38.4315 252 55Z" fill="#FBFDFD"/>
</g>
<g filter="url(#filter9_d_35_2)">
<path d="M226 67.28L225.08 61.72L219.12 61.96L217.6 69.48L212 69L219.16 40L226.56 40.64L231.8 67.76L226 67.28ZM222.48 45.24L219.96 57.68L224.44 57.52L222.48 45.24Z" fill="url(#paint4_linear_35_2)"/>
</g>
<g filter="url(#filter10_i_35_2)">
<path d="M300 55C300 71.5685 286.569 85 270 85C253.431 85 240 71.5685 240 55C240 38.4315 253.431 25 270 25C286.569 25 300 38.4315 300 55Z" fill="#FBFDFD"/>
</g>
<g filter="url(#filter11_d_35_2)">
<path d="M270.72 45.12C269.547 45.12 268.52 46.5733 267.64 49.48C266.76 52.36 266.32 54.92 266.32 57.16C266.32 61.8533 267.547 64.2 270 64.2C270.693 64.2 271.293 63.9067 271.8 63.32C272.333 62.7067 272.707 62.08 272.92 61.44C273.16 60.8 273.44 59.92 273.76 58.8L278.84 59.2C278.147 62.48 277.107 64.9867 275.72 66.72C274.36 68.4533 272.453 69.32 270 69.32C267.12 69.32 264.893 68.24 263.32 66.08C261.773 63.8933 261 61.12 261 57.76C261 53.84 261.773 50.0267 263.32 46.32C264.067 44.48 265.107 42.9733 266.44 41.8C267.8 40.6 269.347 40 271.08 40C273.213 40 274.76 40.7067 275.72 42.12C276.2 42.8133 276.587 43.52 276.88 44.24C277.2 44.96 277.427 45.88 277.56 47C277.8 48.7867 277.947 50.7067 278 52.76L272.84 52.28C272.84 48.84 272.52 46.68 271.88 45.8C271.587 45.3467 271.2 45.12 270.72 45.12Z" fill="url(#paint5_linear_35_2)"/>
</g>
<path d="M274.737 30.4757C276.334 27.3099 277.787 24.5926 279.097 22.3236C280.417 20.0373 281.844 17.6857 283.378 15.2689L279.954 13.8806L281.122 10.5368C282.99 11.2224 284.795 11.9758 286.537 12.7973L291.546 15.3425L290.374 18.5113C289.392 18.0133 288.273 17.4712 287.018 16.8852C285.474 19.3193 284.102 21.5756 282.902 23.6541C281.702 25.7325 280.017 28.7317 277.846 32.6515L274.737 30.4757Z" fill="url(#paint6_linear_35_2)"/>
<path d="M287.292 38.8328C285.647 37.8828 284.678 36.3417 284.384 34.2095C284.119 32.0699 284.856 29.4933 286.596 26.4795C288.346 23.4484 290.386 21.3352 292.715 20.14C295.062 18.9547 297.076 18.8471 298.756 19.8171C300.436 20.7871 301.4 22.3369 301.649 24.4664C301.915 26.606 301.183 29.174 299.453 32.1704C297.723 35.1669 295.679 37.2664 293.322 38.469C290.965 39.6716 288.955 39.7928 287.292 38.8328ZM296.997 22.9238C296.235 22.4838 295.187 22.7793 293.852 23.8103C292.528 24.824 291.276 26.3527 290.096 28.3965C288.926 30.423 288.29 32.0649 288.188 33.3222C288.113 34.5721 288.43 35.4021 289.14 35.8121C289.85 36.2221 290.864 35.9066 292.181 34.8656C293.515 33.8346 294.767 32.3059 295.937 30.2794C297.117 28.2355 297.753 26.5937 297.846 25.3537C297.955 24.1238 297.672 23.3138 296.997 22.9238Z" fill="url(#paint7_linear_35_2)"/>
<path d="M296.484 43.1007C297.995 40.324 299.455 37.7146 300.865 35.2724C302.275 32.8302 304.249 29.7319 306.786 25.9775C310.008 27.2372 313.031 28.682 315.854 30.312L314.009 33.5076C312.052 32.3776 310.198 31.3883 308.448 30.5395C307.259 32.4394 306.355 33.904 305.738 34.9332C307.164 35.5027 308.788 36.2901 310.609 37.2954L309.453 40.4383C308.283 39.7856 306.467 38.9105 304.006 37.813C302.806 39.8915 301.95 41.3947 301.437 42.3227C303.014 43.0715 304.965 43.8517 307.291 44.6633L306.083 47.7762C304.22 47.6017 302.285 46.9344 300.275 45.7744L296.484 43.1007Z" fill="url(#paint8_linear_35_2)"/>
<path fill-rule="evenodd" clip-rule="evenodd" d="M267.04 32.4121L269.38 27.7736C271.011 24.5396 272.519 21.7175 273.901 19.3236C274.122 18.9416 274.345 18.558 274.571 18.1729L272.405 17.2946L277.468 2.80395L283.19 4.90436C285.218 5.64902 287.187 6.47052 289.095 7.36994L289.176 7.40795L299.025 12.4132L298.657 13.4103C299.694 13.6383 300.733 14.0304 301.756 14.6209C303.807 15.8049 305.307 17.4354 306.289 19.3408L308.971 20.3894C312.457 21.7524 315.754 23.326 318.854 25.1158L324.05 28.1158L316.205 41.7038L315.525 41.3113L312.661 49.0967L312.123 48.7967L310.036 54.1729L305.523 53.75C302.62 53.478 299.857 52.4613 297.275 50.9706L297.04 50.8345L289.437 45.4722C287.734 45.4365 285.991 45.01 284.292 44.029C282.646 43.0788 281.362 41.8387 280.411 40.4047L279.866 41.389L267.04 32.4121ZM314.009 33.5076L315.854 30.312C314.147 29.3266 312.367 28.4089 310.515 27.5589C310.346 27.4812 310.176 27.4041 310.005 27.3276C309.239 26.9832 308.459 26.6503 307.668 26.3288C307.376 26.2102 307.082 26.0931 306.786 25.9775C306.203 26.8399 305.65 27.6677 305.127 28.4608C304.538 29.3531 303.987 30.2015 303.474 31.0061C303.059 31.6569 302.668 32.279 302.302 32.8724C302.156 33.1093 302.014 33.3415 301.875 33.5693C301.512 34.1686 301.175 34.7363 300.865 35.2724C300.761 35.4535 300.656 35.6355 300.551 35.8184C300.017 36.747 299.477 37.6993 298.929 38.6753C298.61 39.2436 298.288 39.82 297.965 40.4044C297.477 41.2849 296.983 42.1837 296.484 43.1007L300.275 45.7744C302.285 46.9344 304.22 47.6017 306.083 47.7762L307.291 44.6633C307.237 44.6444 307.183 44.6254 307.129 44.6065C307.102 44.5972 307.075 44.5878 307.049 44.5785C306.83 44.5016 306.615 44.425 306.404 44.3487C305.274 43.9413 304.24 43.5419 303.303 43.1507C303 43.0246 302.708 42.8994 302.426 42.775C302.417 42.771 302.408 42.767 302.399 42.7631C302.296 42.7174 302.194 42.6718 302.093 42.6263C302.028 42.5968 301.963 42.5674 301.899 42.538C301.741 42.4659 301.587 42.3942 301.437 42.3227C301.73 41.7914 302.137 41.0715 302.655 40.1631C302.662 40.1507 302.67 40.1383 302.677 40.1258C303.059 39.4562 303.502 38.6853 304.006 37.813C304.012 37.8156 304.017 37.8181 304.023 37.8206C304.185 37.8928 304.344 37.964 304.5 38.0342C304.974 38.2475 305.423 38.452 305.845 38.6475C307.072 39.2149 308.082 39.7075 308.874 40.1253C308.92 40.1491 308.964 40.1727 309.008 40.1961C309.166 40.28 309.314 40.3607 309.453 40.4383L310.609 37.2954C309.532 36.7005 308.523 36.1819 307.584 35.7396C307.112 35.5176 306.658 35.3148 306.221 35.1312C306.057 35.0625 305.896 34.9965 305.738 34.9332C306.104 34.3227 306.571 33.559 307.138 32.6421C307.142 32.636 307.146 32.63 307.15 32.624C307.536 31.9998 307.969 31.305 308.448 30.5395C309.06 30.8364 309.685 31.1505 310.322 31.4818C311.196 31.9357 312.093 32.4217 313.013 32.9401C313.342 33.1252 313.674 33.3144 314.009 33.5076ZM280.782 27.3831C281.439 26.2158 282.02 25.1895 282.528 24.3042C282.553 24.2605 282.578 24.2171 282.603 24.1741C282.705 23.9948 282.805 23.8215 282.902 23.6541C283.734 22.2131 284.648 20.6865 285.646 19.0745C285.989 18.5198 286.342 17.955 286.705 17.3801C286.743 17.3193 286.781 17.2585 286.82 17.1975C286.886 17.0937 286.952 16.9896 287.018 16.8852C287.681 17.1948 288.306 17.4921 288.893 17.7771C289.287 17.9687 289.665 18.1547 290.025 18.3352C290.143 18.3945 290.26 18.4532 290.374 18.5113L291.546 15.3425L286.537 12.7973C285.937 12.5144 285.33 12.2395 284.715 11.9727C284.275 11.7819 283.831 11.5953 283.384 11.4127C282.693 11.1309 281.993 10.8589 281.285 10.5968C281.231 10.5767 281.176 10.5567 281.122 10.5368L279.954 13.8806L283.378 15.2689C282.931 15.9729 282.494 16.6714 282.065 17.3644C281.421 18.4061 280.797 19.4353 280.193 20.452C279.95 20.8616 279.71 21.2693 279.474 21.6749C279.347 21.8917 279.222 22.1079 279.097 22.3236C277.787 24.5926 276.334 27.3099 274.737 30.4757L277.846 32.6515C277.934 32.4916 278.022 32.3332 278.109 32.1764C278.221 31.9743 278.332 31.7748 278.441 31.5778C279.305 30.0206 280.086 28.6224 280.782 27.3831ZM288.16 24.1154C287.725 24.6842 287.306 25.3002 286.902 25.9634C286.814 26.1073 286.727 26.2533 286.641 26.4016C286.626 26.4275 286.611 26.4535 286.596 26.4795C285.169 28.9496 284.417 31.126 284.338 33.0089C284.337 33.0363 284.336 33.0637 284.335 33.091C284.333 33.1712 284.332 33.2509 284.331 33.3301C284.331 33.631 284.349 33.9241 284.384 34.2095C284.677 36.3417 285.647 37.8828 287.292 38.8328C287.318 38.8479 287.344 38.8626 287.371 38.8771C288.654 39.5872 290.141 39.6617 291.832 39.1005C292.313 38.9412 292.809 38.7307 293.322 38.469C293.708 38.2723 294.085 38.0516 294.454 37.8068C294.465 37.7993 294.476 37.7917 294.488 37.7841C295.914 36.8304 297.215 35.5167 298.389 33.8429C298.735 33.3511 299.069 32.8282 299.392 32.2742C299.413 32.2397 299.433 32.2052 299.453 32.1704C300.863 29.7279 301.61 27.57 301.694 25.6968C301.695 25.678 301.696 25.6592 301.696 25.6405C301.712 25.2358 301.696 24.8444 301.649 24.4664C301.598 24.0286 301.516 23.6152 301.405 23.2263C300.976 21.7338 300.102 20.6024 298.782 19.8321C298.773 19.8271 298.765 19.8221 298.756 19.8171C298.069 19.4206 297.327 19.2041 296.529 19.1678C295.637 19.1271 294.675 19.3112 293.644 19.7201C293.341 19.8406 293.031 19.9805 292.715 20.14C292.362 20.3214 292.015 20.5239 291.674 20.7476C291.638 20.7718 291.601 20.7963 291.564 20.821C291.559 20.8242 291.555 20.8274 291.55 20.8306C290.334 21.6527 289.204 22.7477 288.16 24.1154ZM293.852 23.8103C293.445 24.1218 293.045 24.4819 292.652 24.8906C292.629 24.9142 292.607 24.938 292.584 24.9619C292.386 25.1711 292.189 25.3927 291.995 25.6267C291.912 25.7266 291.829 25.8288 291.746 25.9333C291.416 26.3515 291.091 26.8058 290.771 27.2964C290.543 27.6448 290.318 28.0116 290.096 28.3965C290.081 28.4226 290.066 28.4486 290.051 28.4745C289.738 29.0206 289.464 29.5384 289.229 30.028C289.124 30.2471 289.027 30.4606 288.938 30.6685C288.929 30.6889 288.92 30.7093 288.911 30.7296C288.489 31.7247 288.247 32.5889 288.188 33.3222C288.18 33.4484 288.176 33.5704 288.177 33.6881C288.177 33.7049 288.177 33.7216 288.177 33.7382C288.19 34.7157 288.486 35.3914 289.063 35.7651C289.088 35.7814 289.114 35.797 289.14 35.8121C289.757 36.1679 290.601 35.9773 291.675 35.2402C291.838 35.128 292.007 35.0032 292.181 34.8656C292.6 34.542 293.01 34.1693 293.413 33.7476C293.446 33.7127 293.48 33.6774 293.513 33.6418C293.699 33.4425 293.883 33.2327 294.066 33.0123C294.473 32.5205 294.872 31.9761 295.262 31.3793C295.49 31.0305 295.715 30.6639 295.937 30.2794C295.957 30.2446 295.977 30.2099 295.997 30.1753C296.295 29.6535 296.558 29.1583 296.785 28.6897C296.893 28.4651 296.994 28.2467 297.086 28.0343C297.089 28.0259 297.093 28.0174 297.097 28.009C297.541 26.9802 297.79 26.0951 297.846 25.3537C297.859 25.2087 297.866 25.0695 297.868 24.9362C297.868 24.9266 297.868 24.9171 297.868 24.9076C297.878 23.9258 297.587 23.2645 296.997 22.9238C296.988 22.9188 296.98 22.9139 296.971 22.9091C296.47 22.6334 295.848 22.6697 295.105 23.0179C294.881 23.1232 294.645 23.257 294.398 23.4194C294.391 23.4237 294.385 23.4281 294.378 23.4324C294.208 23.545 294.033 23.6709 293.852 23.8103Z" fill="#FBFDFD"/>
<defs>
<filter id="filter0_i_35_2" x="0" y="25" width="60" height="60" filterUnits="userSpaceOnUse" color-interpolation-filters="sRGB">
<feFlood flood-opacity="0" result="BackgroundImageFix"/>
<feBlend mode="normal" in="SourceGraphic" in2="BackgroundImageFix" result="shape"/>
<feColorMatrix in="SourceAlpha" type="matrix" values="0 0 0 0 0 0 0 0 0 0 0 0 0 0 0 0 0 0 127 0" result="hardAlpha"/>
<feOffset dy="-6"/>
<feComposite in2="hardAlpha" operator="arithmetic" k2="-1" k3="1"/>
<feColorMatrix type="matrix" values="0 0 0 0 0.137255 0 0 0 0 0.137255 0 0 0 0 0.137255 0 0 0 0.25 0"/>
<feBlend mode="normal" in2="shape" result="effect1_innerShadow_35_2"/>
</filter>
<filter id="filter1_d_35_2" x="18" y="40" width="24" height="37.12" filterUnits="userSpaceOnUse" color-interpolation-filters="sRGB">
<feFlood flood-opacity="0" result="BackgroundImageFix"/>
<feColorMatrix in="SourceAlpha" type="matrix" values="0 0 0 0 0 0 0 0 0 0 0 0 0 0 0 0 0 0 127 0" result="hardAlpha"/>
<feOffset dy="4"/>
<feGaussianBlur stdDeviation="2"/>
<feComposite in2="hardAlpha" operator="out"/>
<feColorMatrix type="matrix" values="0 0 0 0 0.137255 0 0 0 0 0.137255 0 0 0 0 0.137255 0 0 0 0.25 0"/>
<feBlend mode="normal" in2="BackgroundImageFix" result="effect1_dropShadow_35_2"/>
<feBlend mode="normal" in="SourceGraphic" in2="effect1_dropShadow_35_2" result="shape"/>
</filter>
<filter id="filter2_i_35_2" x="48" y="25" width="60" height="60" filterUnits="userSpaceOnUse" color-interpolation-filters="sRGB">
<feFlood flood-opacity="0" result="BackgroundImageFix"/>
<feBlend mode="normal" in="SourceGraphic" in2="BackgroundImageFix" result="shape"/>
<feColorMatrix in="SourceAlpha" type="matrix" values="0 0 0 0 0 0 0 0 0 0 0 0 0 0 0 0 0 0 127 0" result="hardAlpha"/>
<feOffset dy="-6"/>
<feComposite in2="hardAlpha" operator="arithmetic" k2="-1" k3="1"/>
<feColorMatrix type="matrix" values="0 0 0 0 0.137255 0 0 0 0 0.137255 0 0 0 0 0.137255 0 0 0 0.25 0"/>
<feBlend mode="normal" in2="shape" result="effect1_innerShadow_35_2"/>
</filter>
<filter id="filter3_d_35_2" x="71" y="40" width="13.92" height="37.16" filterUnits="userSpaceOnUse" color-interpolation-filters="sRGB">
<feFlood flood-opacity="0" result="BackgroundImageFix"/>
<feColorMatrix in="SourceAlpha" type="matrix" values="0 0 0 0 0 0 0 0 0 0 0 0 0 0 0 0 0 0 127 0" result="hardAlpha"/>
<feOffset dy="4"/>
<feGaussianBlur stdDeviation="2"/>
<feComposite in2="hardAlpha" operator="out"/>
<feColorMatrix type="matrix" values="0 0 0 0 0.137255 0 0 0 0 0.137255 0 0 0 0 0.137255 0 0 0 0.25 0"/>
<feBlend mode="normal" in2="BackgroundImageFix" result="effect1_dropShadow_35_2"/>
<feBlend mode="normal" in="SourceGraphic" in2="effect1_dropShadow_35_2" result="shape"/>
</filter>
<filter id="filter4_i_35_2" x="96" y="25" width="60" height="60" filterUnits="userSpaceOnUse" color-interpolation-filters="sRGB">
<feFlood flood-opacity="0" result="BackgroundImageFix"/>
<feBlend mode="normal" in="SourceGraphic" in2="BackgroundImageFix" result="shape"/>
<feColorMatrix in="SourceAlpha" type="matrix" values="0 0 0 0 0 0 0 0 0 0 0 0 0 0 0 0 0 0 127 0" result="hardAlpha"/>
<feOffset dy="-6"/>
<feComposite in2="hardAlpha" operator="arithmetic" k2="-1" k3="1"/>
<feColorMatrix type="matrix" values="0 0 0 0 0.137255 0 0 0 0 0.137255 0 0 0 0 0.137255 0 0 0 0.25 0"/>
<feBlend mode="normal" in2="shape" result="effect1_innerShadow_35_2"/>
</filter>
<filter id="filter5_d_35_2" x="113" y="40" width="25.84" height="37.32" filterUnits="userSpaceOnUse" color-interpolation-filters="sRGB">
<feFlood flood-opacity="0" result="BackgroundImageFix"/>
<feColorMatrix in="SourceAlpha" type="matrix" values="0 0 0 0 0 0 0 0 0 0 0 0 0 0 0 0 0 0 127 0" result="hardAlpha"/>
<feOffset dy="4"/>
<feGaussianBlur stdDeviation="2"/>
<feComposite in2="hardAlpha" operator="out"/>
<feColorMatrix type="matrix" values="0 0 0 0 0.137255 0 0 0 0 0.137255 0 0 0 0 0.137255 0 0 0 0.25 0"/>
<feBlend mode="normal" in2="BackgroundImageFix" result="effect1_dropShadow_35_2"/>
<feBlend mode="normal" in="SourceGraphic" in2="effect1_dropShadow_35_2" result="shape"/>
</filter>
<filter id="filter6_i_35_2" x="144" y="25" width="60" height="60" filterUnits="userSpaceOnUse" color-interpolation-filters="sRGB">
<feFlood flood-opacity="0" result="BackgroundImageFix"/>
<feBlend mode="normal" in="SourceGraphic" in2="BackgroundImageFix" result="shape"/>
<feColorMatrix in="SourceAlpha" type="matrix" values="0 0 0 0 0 0 0 0 0 0 0 0 0 0 0 0 0 0 127 0" result="hardAlpha"/>
<feOffset dy="-6"/>
<feComposite in2="hardAlpha" operator="arithmetic" k2="-1" k3="1"/>
<feColorMatrix type="matrix" values="0 0 0 0 0.137255 0 0 0 0 0.137255 0 0 0 0 0.137255 0 0 0 0.25 0"/>
<feBlend mode="normal" in2="shape" result="effect1_innerShadow_35_2"/>
</filter>
<filter id="filter7_d_35_2" x="162" y="40" width="24" height="37.12" filterUnits="userSpaceOnUse" color-interpolation-filters="sRGB">
<feFlood flood-opacity="0" result="BackgroundImageFix"/>
<feColorMatrix in="SourceAlpha" type="matrix" values="0 0 0 0 0 0 0 0 0 0 0 0 0 0 0 0 0 0 127 0" result="hardAlpha"/>
<feOffset dy="4"/>
<feGaussianBlur stdDeviation="2"/>
<feComposite in2="hardAlpha" operator="out"/>
<feColorMatrix type="matrix" values="0 0 0 0 0.137255 0 0 0 0 0.137255 0 0 0 0 0.137255 0 0 0 0.25 0"/>
<feBlend mode="normal" in2="BackgroundImageFix" result="effect1_dropShadow_35_2"/>
<feBlend mode="normal" in="SourceGraphic" in2="effect1_dropShadow_35_2" result="shape"/>
</filter>
<filter id="filter8_i_35_2" x="192" y="25" width="60" height="60" filterUnits="userSpaceOnUse" color-interpolation-filters="sRGB">
<feFlood flood-opacity="0" result="BackgroundImageFix"/>
<feBlend mode="normal" in="SourceGraphic" in2="BackgroundImageFix" result="shape"/>
<feColorMatrix in="SourceAlpha" type="matrix" values="0 0 0 0 0 0 0 0 0 0 0 0 0 0 0 0 0 0 127 0" result="hardAlpha"/>
<feOffset dy="-6"/>
<feComposite in2="hardAlpha" operator="arithmetic" k2="-1" k3="1"/>
<feColorMatrix type="matrix" values="0 0 0 0 0.137255 0 0 0 0 0.137255 0 0 0 0 0.137255 0 0 0 0.25 0"/>
<feBlend mode="normal" in2="shape" result="effect1_innerShadow_35_2"/>
</filter>
<filter id="filter9_d_35_2" x="208" y="40" width="27.8" height="37.48" filterUnits="userSpaceOnUse" color-interpolation-filters="sRGB">
<feFlood flood-opacity="0" result="BackgroundImageFix"/>
<feColorMatrix in="SourceAlpha" type="matrix" values="0 0 0 0 0 0 0 0 0 0 0 0 0 0 0 0 0 0 127 0" result="hardAlpha"/>
<feOffset dy="4"/>
<feGaussianBlur stdDeviation="2"/>
<feComposite in2="hardAlpha" operator="out"/>
<feColorMatrix type="matrix" values="0 0 0 0 0.137255 0 0 0 0 0.137255 0 0 0 0 0.137255 0 0 0 0.25 0"/>
<feBlend mode="normal" in2="BackgroundImageFix" result="effect1_dropShadow_35_2"/>
<feBlend mode="normal" in="SourceGraphic" in2="effect1_dropShadow_35_2" result="shape"/>
</filter>
<filter id="filter10_i_35_2" x="240" y="25" width="60" height="60" filterUnits="userSpaceOnUse" color-interpolation-filters="sRGB">
<feFlood flood-opacity="0" result="BackgroundImageFix"/>
<feBlend mode="normal" in="SourceGraphic" in2="BackgroundImageFix" result="shape"/>
<feColorMatrix in="SourceAlpha" type="matrix" values="0 0 0 0 0 0 0 0 0 0 0 0 0 0 0 0 0 0 127 0" result="hardAlpha"/>
<feOffset dy="-6"/>
<feComposite in2="hardAlpha" operator="arithmetic" k2="-1" k3="1"/>
<feColorMatrix type="matrix" values="0 0 0 0 0.137255 0 0 0 0 0.137255 0 0 0 0 0.137255 0 0 0 0.25 0"/>
<feBlend mode="normal" in2="shape" result="effect1_innerShadow_35_2"/>
</filter>
<filter id="filter11_d_35_2" x="257" y="40" width="25.84" height="37.32" filterUnits="userSpaceOnUse" color-interpolation-filters="sRGB">
<feFlood flood-opacity="0" result="BackgroundImageFix"/>
<feColorMatrix in="SourceAlpha" type="matrix" values="0 0 0 0 0 0 0 0 0 0 0 0 0 0 0 0 0 0 127 0" result="hardAlpha"/>
<feOffset dy="4"/>
<feGaussianBlur stdDeviation="2"/>
<feComposite in2="hardAlpha" operator="out"/>
<feColorMatrix type="matrix" values="0 0 0 0 0.137255 0 0 0 0 0.137255 0 0 0 0 0.137255 0 0 0 0.25 0"/>
<feBlend mode="normal" in2="BackgroundImageFix" result="effect1_dropShadow_35_2"/>
<feBlend mode="normal" in="SourceGraphic" in2="effect1_dropShadow_35_2" result="shape"/>
</filter>
<linearGradient id="paint0_linear_35_2" x1="30.12" y1="30.6" x2="30.12" y2="78.6" gradientUnits="userSpaceOnUse">
<stop stop-color="#4281F8"/>
<stop offset="0.763542" stop-color="#3ADFFC"/>
</linearGradient>
<linearGradient id="paint1_linear_35_2" x1="77.44" y1="30.16" x2="77.44" y2="78.16" gradientUnits="userSpaceOnUse">
<stop stop-color="#4281F8"/>
<stop offset="0.763542" stop-color="#3ADFFC"/>
</linearGradient>
<linearGradient id="paint2_linear_35_2" x1="125.96" y1="30.12" x2="125.96" y2="78.12" gradientUnits="userSpaceOnUse">
<stop stop-color="#4281F8"/>
<stop offset="0.763542" stop-color="#3ADFFC"/>
</linearGradient>
<linearGradient id="paint3_linear_35_2" x1="174.12" y1="30.6" x2="174.12" y2="78.6" gradientUnits="userSpaceOnUse">
<stop stop-color="#4281F8"/>
<stop offset="0.763542" stop-color="#3ADFFC"/>
</linearGradient>
<linearGradient id="paint4_linear_35_2" x1="222.38" y1="29.68" x2="222.38" y2="77.68" gradientUnits="userSpaceOnUse">
<stop stop-color="#4281F8"/>
<stop offset="0.763542" stop-color="#3ADFFC"/>
</linearGradient>
<linearGradient id="paint5_linear_35_2" x1="269.96" y1="30.12" x2="269.96" y2="78.12" gradientUnits="userSpaceOnUse">
<stop stop-color="#4281F8"/>
<stop offset="0.763542" stop-color="#3ADFFC"/>
</linearGradient>
<linearGradient id="paint6_linear_35_2" x1="302.754" y1="14.25" x2="284.754" y2="45.4269" gradientUnits="userSpaceOnUse">
<stop stop-color="#4281F8"/>
<stop offset="0.763542" stop-color="#3ADFFC"/>
</linearGradient>
<linearGradient id="paint7_linear_35_2" x1="302.754" y1="14.25" x2="284.754" y2="45.4269" gradientUnits="userSpaceOnUse">
<stop stop-color="#4281F8"/>
<stop offset="0.763542" stop-color="#3ADFFC"/>
</linearGradient>
<linearGradient id="paint8_linear_35_2" x1="302.754" y1="14.25" x2="284.754" y2="45.4269" gradientUnits="userSpaceOnUse">
<stop stop-color="#4281F8"/>
<stop offset="0.763542" stop-color="#3ADFFC"/>
</linearGradient>
</defs>
</svg>
